# Blender v2.81 (sub 16) OBJ File: 'ramp.blend'
# www.blender.org
mtllib ramp.mtl
o Ramp
v 1.000000 1.000000 -1.000000
v 1.000000 -1.000000 -1.000000
v 1.000000 1.000000 1.000000
v 1.000000 -1.000000 1.000000
v -1.000000 -1.000000 -1.000000
v -1.000000 -1.000000 1.000000
vt 0.375000 0.500000
vt 0.125000 0.500000
vt 0.625000 0.500000
vt 0.375000 0.750000
vt 0.125000 0.750000
vt 0.625000 0.750000
vn 0.0000 0.0000 -1.0000
vn 0.0000 -1.0000 0.0000
vn 1.0000 0.0000 0.0000
vn 0.0000 0.0000 1.0000
vn -0.7071 0.7071 0.0000
usemtl Material
s off
f 2/1/1 5/2/1 1/3/1
f 5/2/2 2/1/2 4/4/2 6/5/2
f 2/1/3 1/3/3 3/6/3 4/4/3
f 4/4/4 3/6/4 6/5/4
f 6/5/5 3/6/5 1/3/5 5/2/5
